<svg width="1035" height="232" viewBox="0 0 1035 232" fill="none" xmlns="http://www.w3.org/2000/svg">
<rect width="1035" height="232" fill="black"/>
<path d="M230.922 121.029C230.922 138.484 228.051 151.404 222.309 159.789C216.612 168.174 207.816 172.367 195.922 172.367C184.392 172.367 175.688 168.038 169.809 159.379C163.975 150.72 161.059 137.937 161.059 121.029C161.059 103.393 163.907 90.4043 169.604 82.0645C175.3 73.679 184.073 69.4863 195.922 69.4863C207.452 69.4863 216.156 73.8613 222.035 82.6113C227.96 91.3613 230.922 104.167 230.922 121.029ZM182.045 121.029C182.045 133.288 183.093 142.084 185.189 147.416C187.331 152.702 190.909 155.346 195.922 155.346C200.844 155.346 204.398 152.657 206.586 147.279C208.773 141.902 209.867 133.152 209.867 121.029C209.867 108.77 208.751 99.9746 206.518 94.6426C204.33 89.265 200.798 86.5762 195.922 86.5762C190.954 86.5762 187.4 89.265 185.258 94.6426C183.116 99.9746 182.045 108.77 182.045 121.029ZM317.902 121.029C317.902 138.484 315.031 151.404 309.289 159.789C303.592 168.174 294.797 172.367 282.902 172.367C271.372 172.367 262.668 168.038 256.789 159.379C250.956 150.72 248.039 137.937 248.039 121.029C248.039 103.393 250.887 90.4043 256.584 82.0645C262.281 73.679 271.053 69.4863 282.902 69.4863C294.432 69.4863 303.137 73.8613 309.016 82.6113C314.94 91.3613 317.902 104.167 317.902 121.029ZM269.025 121.029C269.025 133.288 270.074 142.084 272.17 147.416C274.312 152.702 277.889 155.346 282.902 155.346C287.824 155.346 291.379 152.657 293.566 147.279C295.754 141.902 296.848 133.152 296.848 121.029C296.848 108.77 295.731 99.9746 293.498 94.6426C291.311 89.265 287.779 86.5762 282.902 86.5762C277.935 86.5762 274.38 89.265 272.238 94.6426C270.096 99.9746 269.025 108.77 269.025 121.029ZM411.445 171H390.596V126.361C390.596 115.333 386.494 109.818 378.291 109.818C372.458 109.818 368.242 111.801 365.645 115.766C363.047 119.73 361.748 126.156 361.748 135.043V171H340.898V64.6328H361.748V86.3027C361.748 87.9889 361.589 91.9538 361.27 98.1973L360.791 104.35H361.885C366.533 96.8757 373.916 93.1387 384.033 93.1387C393.011 93.1387 399.824 95.554 404.473 100.385C409.121 105.215 411.445 112.143 411.445 121.166V171ZM456.521 132.65C456.521 140.215 457.752 145.935 460.213 149.809C462.719 153.682 466.775 155.619 472.381 155.619C477.941 155.619 481.928 153.705 484.344 149.877C486.805 146.003 488.035 140.261 488.035 132.65C488.035 125.085 486.805 119.411 484.344 115.629C481.883 111.846 477.85 109.955 472.244 109.955C466.684 109.955 462.674 111.846 460.213 115.629C457.752 119.366 456.521 125.04 456.521 132.65ZM509.363 132.65C509.363 145.092 506.082 154.822 499.52 161.84C492.957 168.858 483.82 172.367 472.107 172.367C464.77 172.367 458.299 170.772 452.693 167.582C447.088 164.346 442.781 159.721 439.773 153.705C436.766 147.689 435.262 140.671 435.262 132.65C435.262 120.163 438.52 110.456 445.037 103.529C451.554 96.6022 460.714 93.1387 472.518 93.1387C479.855 93.1387 486.326 94.7337 491.932 97.9238C497.537 101.114 501.844 105.694 504.852 111.664C507.859 117.634 509.363 124.63 509.363 132.65ZM550.201 132.65C550.201 140.215 551.432 145.935 553.893 149.809C556.399 153.682 560.455 155.619 566.061 155.619C571.62 155.619 575.608 153.705 578.023 149.877C580.484 146.003 581.715 140.261 581.715 132.65C581.715 125.085 580.484 119.411 578.023 115.629C575.562 111.846 571.529 109.955 565.924 109.955C560.364 109.955 556.354 111.846 553.893 115.629C551.432 119.366 550.201 125.04 550.201 132.65ZM603.043 132.65C603.043 145.092 599.762 154.822 593.199 161.84C586.637 168.858 577.499 172.367 565.787 172.367C558.45 172.367 551.979 170.772 546.373 167.582C540.768 164.346 536.461 159.721 533.453 153.705C530.445 147.689 528.941 140.671 528.941 132.65C528.941 120.163 532.2 110.456 538.717 103.529C545.234 96.6022 554.394 93.1387 566.197 93.1387C573.535 93.1387 580.006 94.7337 585.611 97.9238C591.217 101.114 595.523 105.694 598.531 111.664C601.539 117.634 603.043 124.63 603.043 132.65ZM669.242 172.367C660.264 172.367 653.223 169.109 648.119 162.592H647.025C647.755 168.972 648.119 172.663 648.119 173.666V204.633H627.27V94.5742H644.223L647.162 104.486H648.119C652.995 96.9212 660.219 93.1387 669.789 93.1387C678.812 93.1387 685.876 96.625 690.98 103.598C696.085 110.57 698.637 120.255 698.637 132.65C698.637 140.808 697.429 147.895 695.014 153.91C692.644 159.926 689.249 164.506 684.828 167.65C680.408 170.795 675.212 172.367 669.242 172.367ZM663.09 109.818C657.94 109.818 654.18 111.413 651.811 114.604C649.441 117.748 648.21 122.966 648.119 130.258V132.514C648.119 140.717 649.327 146.596 651.742 150.15C654.203 153.705 658.077 155.482 663.363 155.482C672.706 155.482 677.377 147.781 677.377 132.377C677.377 124.857 676.215 119.229 673.891 115.492C671.612 111.71 668.012 109.818 663.09 109.818ZM776.184 148.305C776.184 156.143 773.449 162.113 767.98 166.215C762.557 170.316 754.423 172.367 743.576 172.367C738.016 172.367 733.277 171.98 729.357 171.205C725.438 170.476 721.77 169.382 718.352 167.924V150.697C722.225 152.52 726.577 154.047 731.408 155.277C736.285 156.508 740.568 157.123 744.26 157.123C751.825 157.123 755.607 154.936 755.607 150.561C755.607 148.92 755.106 147.598 754.104 146.596C753.101 145.548 751.369 144.385 748.908 143.109C746.447 141.788 743.166 140.261 739.064 138.529C733.186 136.068 728.856 133.79 726.076 131.693C723.342 129.597 721.337 127.204 720.061 124.516C718.83 121.781 718.215 118.432 718.215 114.467C718.215 107.676 720.835 102.436 726.076 98.7441C731.363 95.0072 738.837 93.1387 748.498 93.1387C757.704 93.1387 766.659 95.1439 775.363 99.1543L769.074 114.193C765.246 112.553 761.669 111.208 758.342 110.16C755.015 109.112 751.62 108.588 748.156 108.588C742.004 108.588 738.928 110.251 738.928 113.578C738.928 115.447 739.908 117.064 741.867 118.432C743.872 119.799 748.225 121.827 754.924 124.516C760.894 126.931 765.269 129.187 768.049 131.283C770.829 133.38 772.88 135.795 774.201 138.529C775.523 141.264 776.184 144.522 776.184 148.305ZM796.514 161.225C796.514 157.396 797.539 154.503 799.59 152.543C801.641 150.583 804.626 149.604 808.545 149.604C812.327 149.604 815.244 150.606 817.295 152.611C819.391 154.617 820.439 157.488 820.439 161.225C820.439 164.825 819.391 167.673 817.295 169.77C815.199 171.82 812.282 172.846 808.545 172.846C804.717 172.846 801.755 171.843 799.658 169.838C797.562 167.787 796.514 164.916 796.514 161.225ZM866.404 129.438L875.496 117.816L896.893 94.5742H920.408L890.057 127.729L922.254 171H898.191L876.18 140.033L867.225 147.211V171H846.375V64.6328H867.225V112.074L866.131 129.438H866.404ZM993.375 171H933.014V158.695L968.424 110.502H935.133V94.5742H992.145V108.109L957.691 155.072H993.375V171Z" fill="#EF7F4D"/>
<g clip-path="url(#clip0)">
<path d="M121.702 72.6666V132.274C120.355 132.274 41.9554 132.274 37 132.274L44.549 174H88.854L95.3246 138.235H121.702V174H141.113V72.6666H121.702ZM87.6863 144.196H69.9368V138.235H88.7647L87.6863 144.196ZM69.9368 150.157H86.6079L85.5294 156.118H69.9368V150.157ZM63.4662 156.118H47.8736L46.7952 150.157H63.4662V156.118ZM63.4662 138.235V144.196H45.7167L44.6383 138.235H63.4662ZM48.952 162.078H63.4662V168.039H50.0305L48.952 162.078ZM69.9368 168.039V162.078H84.451L83.3726 168.039H69.9368Z" fill="#EF7F4D"/>
<path d="M99.0544 87.5686H115.231V93.5294H99.0544V87.5686Z" fill="#EF7F4D"/>
<path d="M95.8192 99.4901H115.231V105.451H95.8192V99.4901Z" fill="#EF7F4D"/>
<path d="M99.0544 111.412H115.231V117.373H99.0544V111.412Z" fill="#EF7F4D"/>
<path d="M76.4073 105.451C76.4073 110.736 81.3994 114.925 87.1854 114.336C89.9576 108.904 90.1794 102.433 87.1856 96.5658C81.3916 95.976 76.4073 100.173 76.4073 105.451Z" fill="#EF7F4D"/>
<path d="M63.4662 105.451C63.4662 112.647 57.9009 118.667 50.5272 120.053C59.3867 128.4 74.0152 128.403 82.876 120.053C75.5024 118.667 69.9368 112.647 69.9368 105.451C69.9368 98.255 75.5022 92.2344 82.8758 90.8491C74.0165 82.5013 59.3876 82.4991 50.527 90.8491C57.9009 92.2342 63.4662 98.255 63.4662 105.451Z" fill="#EF7F4D"/>
<path d="M56.9956 105.451C56.9956 100.156 51.9924 95.9771 46.2176 96.5656C43.4451 101.999 43.2239 108.47 46.2174 114.336C52.0116 114.926 56.9956 110.729 56.9956 105.451V105.451Z" fill="#EF7F4D"/>
</g>
<defs>
<clipPath id="clip0">
<rect width="110" height="101.333" fill="white" transform="translate(38 72.6666)"/>
</clipPath>
</defs>
</svg>
