<svg width="1035" height="232" viewBox="0 0 1035 232" fill="none" xmlns="http://www.w3.org/2000/svg">
<rect x="1.5" y="1.5" width="1032" height="229" fill="#B54213"/>
<path d="M226.922 117.029C226.922 134.484 224.051 147.404 218.309 155.789C212.612 164.174 203.816 168.367 191.922 168.367C180.392 168.367 171.688 164.038 165.809 155.379C159.975 146.72 157.059 133.937 157.059 117.029C157.059 99.3926 159.907 86.4043 165.604 78.0645C171.3 69.679 180.073 65.4863 191.922 65.4863C203.452 65.4863 212.156 69.8613 218.035 78.6113C223.96 87.3613 226.922 100.167 226.922 117.029ZM178.045 117.029C178.045 129.288 179.093 138.084 181.189 143.416C183.331 148.702 186.909 151.346 191.922 151.346C196.844 151.346 200.398 148.657 202.586 143.279C204.773 137.902 205.867 129.152 205.867 117.029C205.867 104.77 204.751 95.9746 202.518 90.6426C200.33 85.265 196.798 82.5762 191.922 82.5762C186.954 82.5762 183.4 85.265 181.258 90.6426C179.116 95.9746 178.045 104.77 178.045 117.029ZM313.902 117.029C313.902 134.484 311.031 147.404 305.289 155.789C299.592 164.174 290.797 168.367 278.902 168.367C267.372 168.367 258.668 164.038 252.789 155.379C246.956 146.72 244.039 133.937 244.039 117.029C244.039 99.3926 246.887 86.4043 252.584 78.0645C258.281 69.679 267.053 65.4863 278.902 65.4863C290.432 65.4863 299.137 69.8613 305.016 78.6113C310.94 87.3613 313.902 100.167 313.902 117.029ZM265.025 117.029C265.025 129.288 266.074 138.084 268.17 143.416C270.312 148.702 273.889 151.346 278.902 151.346C283.824 151.346 287.379 148.657 289.566 143.279C291.754 137.902 292.848 129.152 292.848 117.029C292.848 104.77 291.731 95.9746 289.498 90.6426C287.311 85.265 283.779 82.5762 278.902 82.5762C273.935 82.5762 270.38 85.265 268.238 90.6426C266.096 95.9746 265.025 104.77 265.025 117.029ZM407.445 167H386.596V122.361C386.596 111.333 382.494 105.818 374.291 105.818C368.458 105.818 364.242 107.801 361.645 111.766C359.047 115.73 357.748 122.156 357.748 131.043V167H336.898V60.6328H357.748V82.3027C357.748 83.9889 357.589 87.9538 357.27 94.1973L356.791 100.35H357.885C362.533 92.8757 369.916 89.1387 380.033 89.1387C389.011 89.1387 395.824 91.554 400.473 96.3848C405.121 101.215 407.445 108.143 407.445 117.166V167ZM452.521 128.65C452.521 136.215 453.752 141.935 456.213 145.809C458.719 149.682 462.775 151.619 468.381 151.619C473.941 151.619 477.928 149.705 480.344 145.877C482.805 142.003 484.035 136.261 484.035 128.65C484.035 121.085 482.805 115.411 480.344 111.629C477.883 107.846 473.85 105.955 468.244 105.955C462.684 105.955 458.674 107.846 456.213 111.629C453.752 115.366 452.521 121.04 452.521 128.65ZM505.363 128.65C505.363 141.092 502.082 150.822 495.52 157.84C488.957 164.858 479.82 168.367 468.107 168.367C460.77 168.367 454.299 166.772 448.693 163.582C443.088 160.346 438.781 155.721 435.773 149.705C432.766 143.689 431.262 136.671 431.262 128.65C431.262 116.163 434.52 106.456 441.037 99.5293C447.554 92.6022 456.714 89.1387 468.518 89.1387C475.855 89.1387 482.326 90.7337 487.932 93.9238C493.537 97.1139 497.844 101.694 500.852 107.664C503.859 113.634 505.363 120.63 505.363 128.65ZM546.201 128.65C546.201 136.215 547.432 141.935 549.893 145.809C552.399 149.682 556.455 151.619 562.061 151.619C567.62 151.619 571.608 149.705 574.023 145.877C576.484 142.003 577.715 136.261 577.715 128.65C577.715 121.085 576.484 115.411 574.023 111.629C571.562 107.846 567.529 105.955 561.924 105.955C556.364 105.955 552.354 107.846 549.893 111.629C547.432 115.366 546.201 121.04 546.201 128.65ZM599.043 128.65C599.043 141.092 595.762 150.822 589.199 157.84C582.637 164.858 573.499 168.367 561.787 168.367C554.45 168.367 547.979 166.772 542.373 163.582C536.768 160.346 532.461 155.721 529.453 149.705C526.445 143.689 524.941 136.671 524.941 128.65C524.941 116.163 528.2 106.456 534.717 99.5293C541.234 92.6022 550.394 89.1387 562.197 89.1387C569.535 89.1387 576.006 90.7337 581.611 93.9238C587.217 97.1139 591.523 101.694 594.531 107.664C597.539 113.634 599.043 120.63 599.043 128.65ZM665.242 168.367C656.264 168.367 649.223 165.109 644.119 158.592H643.025C643.755 164.972 644.119 168.663 644.119 169.666V200.633H623.27V90.5742H640.223L643.162 100.486H644.119C648.995 92.9212 656.219 89.1387 665.789 89.1387C674.812 89.1387 681.876 92.625 686.98 99.5977C692.085 106.57 694.637 116.255 694.637 128.65C694.637 136.808 693.429 143.895 691.014 149.91C688.644 155.926 685.249 160.506 680.828 163.65C676.408 166.795 671.212 168.367 665.242 168.367ZM659.09 105.818C653.94 105.818 650.18 107.413 647.811 110.604C645.441 113.748 644.21 118.966 644.119 126.258V128.514C644.119 136.717 645.327 142.596 647.742 146.15C650.203 149.705 654.077 151.482 659.363 151.482C668.706 151.482 673.377 143.781 673.377 128.377C673.377 120.857 672.215 115.229 669.891 111.492C667.612 107.71 664.012 105.818 659.09 105.818ZM772.184 144.305C772.184 152.143 769.449 158.113 763.98 162.215C758.557 166.316 750.423 168.367 739.576 168.367C734.016 168.367 729.277 167.98 725.357 167.205C721.438 166.476 717.77 165.382 714.352 163.924V146.697C718.225 148.52 722.577 150.047 727.408 151.277C732.285 152.508 736.568 153.123 740.26 153.123C747.825 153.123 751.607 150.936 751.607 146.561C751.607 144.92 751.106 143.598 750.104 142.596C749.101 141.548 747.369 140.385 744.908 139.109C742.447 137.788 739.166 136.261 735.064 134.529C729.186 132.068 724.856 129.79 722.076 127.693C719.342 125.597 717.337 123.204 716.061 120.516C714.83 117.781 714.215 114.432 714.215 110.467C714.215 103.676 716.835 98.4355 722.076 94.7441C727.363 91.0072 734.837 89.1387 744.498 89.1387C753.704 89.1387 762.659 91.1439 771.363 95.1543L765.074 110.193C761.246 108.553 757.669 107.208 754.342 106.16C751.015 105.112 747.62 104.588 744.156 104.588C738.004 104.588 734.928 106.251 734.928 109.578C734.928 111.447 735.908 113.064 737.867 114.432C739.872 115.799 744.225 117.827 750.924 120.516C756.894 122.931 761.269 125.187 764.049 127.283C766.829 129.38 768.88 131.795 770.201 134.529C771.523 137.264 772.184 140.522 772.184 144.305ZM792.514 157.225C792.514 153.396 793.539 150.503 795.59 148.543C797.641 146.583 800.626 145.604 804.545 145.604C808.327 145.604 811.244 146.606 813.295 148.611C815.391 150.617 816.439 153.488 816.439 157.225C816.439 160.825 815.391 163.673 813.295 165.77C811.199 167.82 808.282 168.846 804.545 168.846C800.717 168.846 797.755 167.843 795.658 165.838C793.562 163.787 792.514 160.916 792.514 157.225ZM862.404 125.438L871.496 113.816L892.893 90.5742H916.408L886.057 123.729L918.254 167H894.191L872.18 136.033L863.225 143.211V167H842.375V60.6328H863.225V108.074L862.131 125.438H862.404ZM989.375 167H929.014V154.695L964.424 106.502H931.133V90.5742H988.145V104.109L953.691 151.072H989.375V167Z" fill="white"/>
<g clip-path="url(#clip0)">
<path d="M116.702 68.6667V128.275C115.355 128.275 36.9554 128.275 32 128.275L39.549 170H83.854L90.3246 134.235H116.702V170H136.113V68.6667H116.702ZM82.6863 140.196H64.9368V134.235H83.7647L82.6863 140.196ZM64.9368 146.157H81.6079L80.5294 152.118H64.9368V146.157ZM58.4662 152.118H42.8736L41.7952 146.157H58.4662V152.118ZM58.4662 134.235V140.196H40.7167L39.6383 134.235H58.4662ZM43.952 158.078H58.4662V164.039H45.0305L43.952 158.078ZM64.9368 164.039V158.078H79.451L78.3726 164.039H64.9368Z" fill="white"/>
<path d="M94.0544 83.5687H110.231V89.5295H94.0544V83.5687Z" fill="white"/>
<path d="M90.8192 95.4902H110.231V101.451H90.8192V95.4902Z" fill="white"/>
<path d="M94.0544 107.412H110.231V113.373H94.0544V107.412Z" fill="white"/>
<path d="M71.4073 101.451C71.4073 106.736 76.3994 110.925 82.1854 110.336C84.9576 104.904 85.1794 98.433 82.1856 92.5658C76.3916 91.9761 71.4073 96.1729 71.4073 101.451Z" fill="white"/>
<path d="M58.4662 101.451C58.4662 108.647 52.9009 114.667 45.5272 116.053C54.3867 124.4 69.0152 124.403 77.876 116.053C70.5024 114.667 64.9368 108.647 64.9368 101.451C64.9368 94.2551 70.5022 88.2345 77.8758 86.8493C69.0165 78.5014 54.3876 78.4992 45.527 86.8493C52.9009 88.2343 58.4662 94.2551 58.4662 101.451Z" fill="white"/>
<path d="M51.9956 101.451C51.9956 96.1563 46.9924 91.9772 41.2176 92.5657C38.4451 97.9989 38.2239 104.47 41.2174 110.336C47.0116 110.926 51.9956 106.729 51.9956 101.451V101.451Z" fill="white"/>
</g>
<rect x="1.5" y="1.5" width="1032" height="229" stroke="#B54213" stroke-width="3"/>
<defs>
<clipPath id="clip0">
<rect width="110" height="101.333" fill="white" transform="translate(33 68.6667)"/>
</clipPath>
</defs>
</svg>
