<svg width="1035" height="232" viewBox="0 0 1035 232" fill="none" xmlns="http://www.w3.org/2000/svg">
<rect width="1035" height="232" fill="white"/>
<path d="M229.922 121.029C229.922 138.484 227.051 151.404 221.309 159.789C215.612 168.174 206.816 172.367 194.922 172.367C183.392 172.367 174.688 168.038 168.809 159.379C162.975 150.72 160.059 137.937 160.059 121.029C160.059 103.393 162.907 90.4043 168.604 82.0645C174.3 73.679 183.073 69.4863 194.922 69.4863C206.452 69.4863 215.156 73.8613 221.035 82.6113C226.96 91.3613 229.922 104.167 229.922 121.029ZM181.045 121.029C181.045 133.288 182.093 142.084 184.189 147.416C186.331 152.702 189.909 155.346 194.922 155.346C199.844 155.346 203.398 152.657 205.586 147.279C207.773 141.902 208.867 133.152 208.867 121.029C208.867 108.77 207.751 99.9746 205.518 94.6426C203.33 89.265 199.798 86.5762 194.922 86.5762C189.954 86.5762 186.4 89.265 184.258 94.6426C182.116 99.9746 181.045 108.77 181.045 121.029ZM316.902 121.029C316.902 138.484 314.031 151.404 308.289 159.789C302.592 168.174 293.797 172.367 281.902 172.367C270.372 172.367 261.668 168.038 255.789 159.379C249.956 150.72 247.039 137.937 247.039 121.029C247.039 103.393 249.887 90.4043 255.584 82.0645C261.281 73.679 270.053 69.4863 281.902 69.4863C293.432 69.4863 302.137 73.8613 308.016 82.6113C313.94 91.3613 316.902 104.167 316.902 121.029ZM268.025 121.029C268.025 133.288 269.074 142.084 271.17 147.416C273.312 152.702 276.889 155.346 281.902 155.346C286.824 155.346 290.379 152.657 292.566 147.279C294.754 141.902 295.848 133.152 295.848 121.029C295.848 108.77 294.731 99.9746 292.498 94.6426C290.311 89.265 286.779 86.5762 281.902 86.5762C276.935 86.5762 273.38 89.265 271.238 94.6426C269.096 99.9746 268.025 108.77 268.025 121.029ZM410.445 171H389.596V126.361C389.596 115.333 385.494 109.818 377.291 109.818C371.458 109.818 367.242 111.801 364.645 115.766C362.047 119.73 360.748 126.156 360.748 135.043V171H339.898V64.6328H360.748V86.3027C360.748 87.9889 360.589 91.9538 360.27 98.1973L359.791 104.35H360.885C365.533 96.8757 372.916 93.1387 383.033 93.1387C392.011 93.1387 398.824 95.554 403.473 100.385C408.121 105.215 410.445 112.143 410.445 121.166V171ZM455.521 132.65C455.521 140.215 456.752 145.935 459.213 149.809C461.719 153.682 465.775 155.619 471.381 155.619C476.941 155.619 480.928 153.705 483.344 149.877C485.805 146.003 487.035 140.261 487.035 132.65C487.035 125.085 485.805 119.411 483.344 115.629C480.883 111.846 476.85 109.955 471.244 109.955C465.684 109.955 461.674 111.846 459.213 115.629C456.752 119.366 455.521 125.04 455.521 132.65ZM508.363 132.65C508.363 145.092 505.082 154.822 498.52 161.84C491.957 168.858 482.82 172.367 471.107 172.367C463.77 172.367 457.299 170.772 451.693 167.582C446.088 164.346 441.781 159.721 438.773 153.705C435.766 147.689 434.262 140.671 434.262 132.65C434.262 120.163 437.52 110.456 444.037 103.529C450.554 96.6022 459.714 93.1387 471.518 93.1387C478.855 93.1387 485.326 94.7337 490.932 97.9238C496.537 101.114 500.844 105.694 503.852 111.664C506.859 117.634 508.363 124.63 508.363 132.65ZM549.201 132.65C549.201 140.215 550.432 145.935 552.893 149.809C555.399 153.682 559.455 155.619 565.061 155.619C570.62 155.619 574.608 153.705 577.023 149.877C579.484 146.003 580.715 140.261 580.715 132.65C580.715 125.085 579.484 119.411 577.023 115.629C574.562 111.846 570.529 109.955 564.924 109.955C559.364 109.955 555.354 111.846 552.893 115.629C550.432 119.366 549.201 125.04 549.201 132.65ZM602.043 132.65C602.043 145.092 598.762 154.822 592.199 161.84C585.637 168.858 576.499 172.367 564.787 172.367C557.45 172.367 550.979 170.772 545.373 167.582C539.768 164.346 535.461 159.721 532.453 153.705C529.445 147.689 527.941 140.671 527.941 132.65C527.941 120.163 531.2 110.456 537.717 103.529C544.234 96.6022 553.394 93.1387 565.197 93.1387C572.535 93.1387 579.006 94.7337 584.611 97.9238C590.217 101.114 594.523 105.694 597.531 111.664C600.539 117.634 602.043 124.63 602.043 132.65ZM668.242 172.367C659.264 172.367 652.223 169.109 647.119 162.592H646.025C646.755 168.972 647.119 172.663 647.119 173.666V204.633H626.27V94.5742H643.223L646.162 104.486H647.119C651.995 96.9212 659.219 93.1387 668.789 93.1387C677.812 93.1387 684.876 96.625 689.98 103.598C695.085 110.57 697.637 120.255 697.637 132.65C697.637 140.808 696.429 147.895 694.014 153.91C691.644 159.926 688.249 164.506 683.828 167.65C679.408 170.795 674.212 172.367 668.242 172.367ZM662.09 109.818C656.94 109.818 653.18 111.413 650.811 114.604C648.441 117.748 647.21 122.966 647.119 130.258V132.514C647.119 140.717 648.327 146.596 650.742 150.15C653.203 153.705 657.077 155.482 662.363 155.482C671.706 155.482 676.377 147.781 676.377 132.377C676.377 124.857 675.215 119.229 672.891 115.492C670.612 111.71 667.012 109.818 662.09 109.818ZM775.184 148.305C775.184 156.143 772.449 162.113 766.98 166.215C761.557 170.316 753.423 172.367 742.576 172.367C737.016 172.367 732.277 171.98 728.357 171.205C724.438 170.476 720.77 169.382 717.352 167.924V150.697C721.225 152.52 725.577 154.047 730.408 155.277C735.285 156.508 739.568 157.123 743.26 157.123C750.825 157.123 754.607 154.936 754.607 150.561C754.607 148.92 754.106 147.598 753.104 146.596C752.101 145.548 750.369 144.385 747.908 143.109C745.447 141.788 742.166 140.261 738.064 138.529C732.186 136.068 727.856 133.79 725.076 131.693C722.342 129.597 720.337 127.204 719.061 124.516C717.83 121.781 717.215 118.432 717.215 114.467C717.215 107.676 719.835 102.436 725.076 98.7441C730.363 95.0072 737.837 93.1387 747.498 93.1387C756.704 93.1387 765.659 95.1439 774.363 99.1543L768.074 114.193C764.246 112.553 760.669 111.208 757.342 110.16C754.015 109.112 750.62 108.588 747.156 108.588C741.004 108.588 737.928 110.251 737.928 113.578C737.928 115.447 738.908 117.064 740.867 118.432C742.872 119.799 747.225 121.827 753.924 124.516C759.894 126.931 764.269 129.187 767.049 131.283C769.829 133.38 771.88 135.795 773.201 138.529C774.523 141.264 775.184 144.522 775.184 148.305ZM795.514 161.225C795.514 157.396 796.539 154.503 798.59 152.543C800.641 150.583 803.626 149.604 807.545 149.604C811.327 149.604 814.244 150.606 816.295 152.611C818.391 154.617 819.439 157.488 819.439 161.225C819.439 164.825 818.391 167.673 816.295 169.77C814.199 171.82 811.282 172.846 807.545 172.846C803.717 172.846 800.755 171.843 798.658 169.838C796.562 167.787 795.514 164.916 795.514 161.225ZM865.404 129.438L874.496 117.816L895.893 94.5742H919.408L889.057 127.729L921.254 171H897.191L875.18 140.033L866.225 147.211V171H845.375V64.6328H866.225V112.074L865.131 129.438H865.404ZM992.375 171H932.014V158.695L967.424 110.502H934.133V94.5742H991.145V108.109L956.691 155.072H992.375V171Z" fill="#B54213"/>
<g clip-path="url(#clip0)">
<path d="M120.702 72.6666V132.274C119.355 132.274 40.9554 132.274 36 132.274L43.549 174H87.854L94.3246 138.235H120.702V174H140.113V72.6666H120.702ZM86.6863 144.196H68.9368V138.235H87.7647L86.6863 144.196ZM68.9368 150.157H85.6079L84.5294 156.118H68.9368V150.157ZM62.4662 156.118H46.8736L45.7952 150.157H62.4662V156.118ZM62.4662 138.235V144.196H44.7167L43.6383 138.235H62.4662ZM47.952 162.078H62.4662V168.039H49.0305L47.952 162.078ZM68.9368 168.039V162.078H83.451L82.3726 168.039H68.9368Z" fill="#B54213"/>
<path d="M98.0544 87.5686H114.231V93.5294H98.0544V87.5686Z" fill="#B54213"/>
<path d="M94.8192 99.4901H114.231V105.451H94.8192V99.4901Z" fill="#B54213"/>
<path d="M98.0544 111.412H114.231V117.373H98.0544V111.412Z" fill="#B54213"/>
<path d="M75.4073 105.451C75.4073 110.736 80.3994 114.925 86.1854 114.336C88.9576 108.904 89.1794 102.433 86.1856 96.5658C80.3916 95.976 75.4073 100.173 75.4073 105.451Z" fill="#B54213"/>
<path d="M62.4662 105.451C62.4662 112.647 56.9009 118.667 49.5272 120.053C58.3867 128.4 73.0152 128.403 81.876 120.053C74.5024 118.667 68.9368 112.647 68.9368 105.451C68.9368 98.255 74.5022 92.2344 81.8758 90.8491C73.0165 82.5013 58.3876 82.4991 49.527 90.8491C56.9009 92.2342 62.4662 98.255 62.4662 105.451Z" fill="#B54213"/>
<path d="M55.9956 105.451C55.9956 100.156 50.9924 95.9771 45.2176 96.5656C42.4451 101.999 42.2239 108.47 45.2174 114.336C51.0116 114.926 55.9956 110.729 55.9956 105.451V105.451Z" fill="#B54213"/>
</g>
<defs>
<clipPath id="clip0">
<rect width="110" height="101.333" fill="white" transform="translate(37 72.6666)"/>
</clipPath>
</defs>
</svg>
